<svg xmlns="http://www.w3.org/2000/svg" viewBox="0 0 400 800">
<defs>
<linearGradient id="bg" x1="0" y1="0" x2="0" y2="1">
<stop offset="0%" stop-color="#0A0A12" />
<stop offset="100%" stop-color="#1A1424" />
</linearGradient>
</defs>

<rect width="400" height="800" fill="url(#bg)" />
<circle cx="373.3" cy="417.6" r="0.7" fill="#FFFFFF" opacity="0.35" />
<circle cx="327.5" cy="326.5" r="1.4" fill="#FFFFFF" opacity="0.48" />
<circle cx="240.3" cy="270.9" r="1.3" fill="#FFFFFF" opacity="0.40" />
<circle cx="173.7" cy="179.2" r="1.5" fill="#FFFFFF" opacity="0.90" />
<circle cx="370.8" cy="244.0" r="1.1" fill="#FFFFFF" opacity="0.46" />
<circle cx="23.7" cy="21.8" r="1.2" fill="#FFFFFF" opacity="0.49" />
<circle cx="154.4" cy="393.5" r="1.2" fill="#FFFFFF" opacity="0.64" />
<circle cx="99.7" cy="20.3" r="1.0" fill="#FFFFFF" opacity="0.38" />
<circle cx="203.9" cy="439.4" r="1.4" fill="#FFFFFF" opacity="0.41" />
<circle cx="349.6" cy="352.6" r="1.5" fill="#FFFFFF" opacity="0.84" />
<circle cx="299.9" cy="349.6" r="1.0" fill="#FFFFFF" opacity="0.89" />
<circle cx="375.5" cy="79.3" r="1.5" fill="#FFFFFF" opacity="0.73" />
<circle cx="185.3" cy="238.1" r="1.2" fill="#FFFFFF" opacity="0.85" />
<circle cx="200.3" cy="367.6" r="1.0" fill="#FFFFFF" opacity="0.83" />
<circle cx="351.9" cy="208.2" r="1.3" fill="#FFFFFF" opacity="0.85" />
<circle cx="285.0" cy="219.2" r="0.9" fill="#FFFFFF" opacity="0.49" />
<circle cx="275.8" cy="81.4" r="1.7" fill="#FFFFFF" opacity="0.46" />
<circle cx="356.3" cy="143.1" r="1.7" fill="#FFFFFF" opacity="0.72" />
<circle cx="201.6" cy="232.6" r="1.4" fill="#FFFFFF" opacity="0.65" />
<circle cx="128.5" cy="99.4" r="1.2" fill="#FFFFFF" opacity="0.86" />
<circle cx="246.8" cy="42.4" r="1.6" fill="#FFFFFF" opacity="0.74" />
<circle cx="354.9" cy="92.3" r="1.5" fill="#FFFFFF" opacity="0.34" />
<circle cx="258.1" cy="127.4" r="0.9" fill="#FFFFFF" opacity="0.83" />
<circle cx="50.4" cy="234.6" r="1.6" fill="#FFFFFF" opacity="0.45" />
<circle cx="90.0" cy="388.7" r="1.1" fill="#FFFFFF" opacity="0.73" />
<circle cx="22.1" cy="165.8" r="0.8" fill="#FFFFFF" opacity="0.70" />
<circle cx="41.5" cy="420.5" r="0.6" fill="#FFFFFF" opacity="0.74" />
<circle cx="18.0" cy="119.9" r="1.6" fill="#FFFFFF" opacity="0.39" />
<circle cx="79.8" cy="307.3" r="1.1" fill="#FFFFFF" opacity="0.33" />
<circle cx="386.2" cy="75.1" r="0.6" fill="#FFFFFF" opacity="0.51" />
<circle cx="90" cy="110" r="30" fill="#F5F1E6" opacity="0.95" />
  <circle cx="100.5" cy="105.5" r="26.4" fill="url(#bg)" />
<rect x="0" y="412" width="38" height="388" fill="#15121E" />
<rect x="6" y="424" width="4" height="6" fill="#F3D98B" opacity="0.44" />
<rect x="16" y="424" width="4" height="6" fill="#F3D98B" opacity="0.58" />
<rect x="6" y="438" width="4" height="6" fill="#F3D98B" opacity="0.42" />
<rect x="26" y="452" width="4" height="6" fill="#F3D98B" opacity="0.46" />
<rect x="16" y="466" width="4" height="6" fill="#F3D98B" opacity="0.87" />
<rect x="26" y="466" width="4" height="6" fill="#F3D98B" opacity="0.60" />
<rect x="6" y="480" width="4" height="6" fill="#F3D98B" opacity="0.42" />
<rect x="16" y="480" width="4" height="6" fill="#F3D98B" opacity="0.54" />
<rect x="43" y="305" width="38" height="495" fill="#15121E" />
<rect x="59" y="317" width="4" height="6" fill="#F3D98B" opacity="0.72" />
<rect x="49" y="331" width="4" height="6" fill="#F3D98B" opacity="0.43" />
<rect x="49" y="345" width="4" height="6" fill="#F3D98B" opacity="0.61" />
<rect x="69" y="345" width="4" height="6" fill="#F3D98B" opacity="0.63" />
<rect x="59" y="359" width="4" height="6" fill="#F3D98B" opacity="0.75" />
<rect x="49" y="373" width="4" height="6" fill="#F3D98B" opacity="0.66" />
<rect x="59" y="373" width="4" height="6" fill="#F3D98B" opacity="0.76" />
<rect x="49" y="387" width="4" height="6" fill="#F3D98B" opacity="0.46" />
<rect x="69" y="387" width="4" height="6" fill="#F3D98B" opacity="0.48" />
<rect x="49" y="401" width="4" height="6" fill="#F3D98B" opacity="0.42" />
<rect x="59" y="401" width="4" height="6" fill="#F3D98B" opacity="0.78" />
<rect x="69" y="401" width="4" height="6" fill="#F3D98B" opacity="0.84" />
<rect x="59" y="415" width="4" height="6" fill="#F3D98B" opacity="0.70" />
<rect x="69" y="415" width="4" height="6" fill="#F3D98B" opacity="0.63" />
<rect x="49" y="429" width="4" height="6" fill="#F3D98B" opacity="0.87" />
<rect x="59" y="429" width="4" height="6" fill="#F3D98B" opacity="0.73" />
<rect x="49" y="443" width="4" height="6" fill="#F3D98B" opacity="0.72" />
<rect x="59" y="443" width="4" height="6" fill="#F3D98B" opacity="0.81" />
<rect x="59" y="457" width="4" height="6" fill="#F3D98B" opacity="0.41" />
<rect x="69" y="457" width="4" height="6" fill="#F3D98B" opacity="0.48" />
<rect x="69" y="471" width="4" height="6" fill="#F3D98B" opacity="0.46" />
<rect x="69" y="485" width="4" height="6" fill="#F3D98B" opacity="0.44" />
<rect x="88" y="295" width="46" height="505" fill="#15121E" />
<rect x="94" y="307" width="4" height="6" fill="#F3D98B" opacity="0.83" />
<rect x="94" y="321" width="4" height="6" fill="#F3D98B" opacity="0.88" />
<rect x="104" y="335" width="4" height="6" fill="#F3D98B" opacity="0.69" />
<rect x="114" y="349" width="4" height="6" fill="#F3D98B" opacity="0.88" />
<rect x="124" y="349" width="4" height="6" fill="#F3D98B" opacity="0.66" />
<rect x="94" y="363" width="4" height="6" fill="#F3D98B" opacity="0.74" />
<rect x="114" y="363" width="4" height="6" fill="#F3D98B" opacity="0.79" />
<rect x="124" y="363" width="4" height="6" fill="#F3D98B" opacity="0.80" />
<rect x="124" y="377" width="4" height="6" fill="#F3D98B" opacity="0.43" />
<rect x="114" y="419" width="4" height="6" fill="#F3D98B" opacity="0.71" />
<rect x="94" y="447" width="4" height="6" fill="#F3D98B" opacity="0.90" />
<rect x="104" y="447" width="4" height="6" fill="#F3D98B" opacity="0.64" />
<rect x="114" y="461" width="4" height="6" fill="#F3D98B" opacity="0.48" />
<rect x="94" y="475" width="4" height="6" fill="#F3D98B" opacity="0.66" />
<rect x="114" y="475" width="4" height="6" fill="#F3D98B" opacity="0.41" />
<rect x="124" y="475" width="4" height="6" fill="#F3D98B" opacity="0.89" />
<rect x="142" y="394" width="50" height="406" fill="#15121E" />
<rect x="168" y="406" width="4" height="6" fill="#F3D98B" opacity="0.67" />
<rect x="178" y="406" width="4" height="6" fill="#F3D98B" opacity="0.56" />
<rect x="158" y="420" width="4" height="6" fill="#F3D98B" opacity="0.89" />
<rect x="168" y="420" width="4" height="6" fill="#F3D98B" opacity="0.80" />
<rect x="178" y="420" width="4" height="6" fill="#F3D98B" opacity="0.77" />
<rect x="158" y="434" width="4" height="6" fill="#F3D98B" opacity="0.58" />
<rect x="168" y="448" width="4" height="6" fill="#F3D98B" opacity="0.88" />
<rect x="148" y="462" width="4" height="6" fill="#F3D98B" opacity="0.89" />
<rect x="158" y="462" width="4" height="6" fill="#F3D98B" opacity="0.58" />
<rect x="168" y="476" width="4" height="6" fill="#F3D98B" opacity="0.85" />
<rect x="178" y="476" width="4" height="6" fill="#F3D98B" opacity="0.64" />
<rect x="201" y="422" width="54" height="378" fill="#15121E" />
<rect x="207" y="434" width="4" height="6" fill="#F3D98B" opacity="0.85" />
<rect x="217" y="434" width="4" height="6" fill="#F3D98B" opacity="0.78" />
<rect x="227" y="434" width="4" height="6" fill="#F3D98B" opacity="0.49" />
<rect x="237" y="434" width="4" height="6" fill="#F3D98B" opacity="0.57" />
<rect x="207" y="448" width="4" height="6" fill="#F3D98B" opacity="0.89" />
<rect x="237" y="448" width="4" height="6" fill="#F3D98B" opacity="0.76" />
<rect x="237" y="462" width="4" height="6" fill="#F3D98B" opacity="0.80" />
<rect x="217" y="476" width="4" height="6" fill="#F3D98B" opacity="0.89" />
<rect x="227" y="476" width="4" height="6" fill="#F3D98B" opacity="0.58" />
<rect x="237" y="476" width="4" height="6" fill="#F3D98B" opacity="0.47" />
<rect x="258" y="332" width="59" height="468" fill="#15121E" />
<rect x="264" y="344" width="4" height="6" fill="#F3D98B" opacity="0.87" />
<rect x="284" y="344" width="4" height="6" fill="#F3D98B" opacity="0.81" />
<rect x="284" y="358" width="4" height="6" fill="#F3D98B" opacity="0.53" />
<rect x="264" y="372" width="4" height="6" fill="#F3D98B" opacity="0.58" />
<rect x="274" y="372" width="4" height="6" fill="#F3D98B" opacity="0.69" />
<rect x="284" y="372" width="4" height="6" fill="#F3D98B" opacity="0.61" />
<rect x="294" y="372" width="4" height="6" fill="#F3D98B" opacity="0.65" />
<rect x="304" y="372" width="4" height="6" fill="#F3D98B" opacity="0.66" />
<rect x="304" y="386" width="4" height="6" fill="#F3D98B" opacity="0.49" />
<rect x="264" y="400" width="4" height="6" fill="#F3D98B" opacity="0.76" />
<rect x="274" y="400" width="4" height="6" fill="#F3D98B" opacity="0.56" />
<rect x="284" y="400" width="4" height="6" fill="#F3D98B" opacity="0.68" />
<rect x="294" y="400" width="4" height="6" fill="#F3D98B" opacity="0.45" />
<rect x="304" y="400" width="4" height="6" fill="#F3D98B" opacity="0.52" />
<rect x="274" y="414" width="4" height="6" fill="#F3D98B" opacity="0.65" />
<rect x="284" y="414" width="4" height="6" fill="#F3D98B" opacity="0.78" />
<rect x="294" y="414" width="4" height="6" fill="#F3D98B" opacity="0.62" />
<rect x="304" y="414" width="4" height="6" fill="#F3D98B" opacity="0.65" />
<rect x="264" y="428" width="4" height="6" fill="#F3D98B" opacity="0.75" />
<rect x="274" y="428" width="4" height="6" fill="#F3D98B" opacity="0.67" />
<rect x="284" y="428" width="4" height="6" fill="#F3D98B" opacity="0.87" />
<rect x="294" y="428" width="4" height="6" fill="#F3D98B" opacity="0.84" />
<rect x="304" y="428" width="4" height="6" fill="#F3D98B" opacity="0.53" />
<rect x="264" y="442" width="4" height="6" fill="#F3D98B" opacity="0.87" />
<rect x="274" y="442" width="4" height="6" fill="#F3D98B" opacity="0.47" />
<rect x="284" y="456" width="4" height="6" fill="#F3D98B" opacity="0.79" />
<rect x="294" y="456" width="4" height="6" fill="#F3D98B" opacity="0.48" />
<rect x="304" y="456" width="4" height="6" fill="#F3D98B" opacity="0.73" />
<rect x="274" y="470" width="4" height="6" fill="#F3D98B" opacity="0.88" />
<rect x="294" y="470" width="4" height="6" fill="#F3D98B" opacity="0.60" />
<rect x="304" y="470" width="4" height="6" fill="#F3D98B" opacity="0.89" />
<rect x="264" y="484" width="4" height="6" fill="#F3D98B" opacity="0.48" />
<rect x="284" y="484" width="4" height="6" fill="#F3D98B" opacity="0.57" />
<rect x="326" y="347" width="29" height="453" fill="#15121E" />
<rect x="342" y="373" width="4" height="6" fill="#F3D98B" opacity="0.66" />
<rect x="342" y="387" width="4" height="6" fill="#F3D98B" opacity="0.79" />
<rect x="332" y="401" width="4" height="6" fill="#F3D98B" opacity="0.45" />
<rect x="342" y="415" width="4" height="6" fill="#F3D98B" opacity="0.54" />
<rect x="332" y="443" width="4" height="6" fill="#F3D98B" opacity="0.81" />
<rect x="342" y="457" width="4" height="6" fill="#F3D98B" opacity="0.69" />
<rect x="332" y="471" width="4" height="6" fill="#F3D98B" opacity="0.44" />
<rect x="332" y="485" width="4" height="6" fill="#F3D98B" opacity="0.61" />
<rect x="364" y="308" width="48" height="492" fill="#15121E" />
<rect x="380" y="320" width="4" height="6" fill="#F3D98B" opacity="0.43" />
<rect x="390" y="320" width="4" height="6" fill="#F3D98B" opacity="0.63" />
<rect x="370" y="334" width="4" height="6" fill="#F3D98B" opacity="0.86" />
<rect x="400" y="334" width="4" height="6" fill="#F3D98B" opacity="0.52" />
<rect x="390" y="362" width="4" height="6" fill="#F3D98B" opacity="0.54" />
<rect x="400" y="362" width="4" height="6" fill="#F3D98B" opacity="0.49" />
<rect x="370" y="390" width="4" height="6" fill="#F3D98B" opacity="0.68" />
<rect x="390" y="390" width="4" height="6" fill="#F3D98B" opacity="0.87" />
<rect x="370" y="404" width="4" height="6" fill="#F3D98B" opacity="0.62" />
<rect x="380" y="404" width="4" height="6" fill="#F3D98B" opacity="0.82" />
<rect x="400" y="404" width="4" height="6" fill="#F3D98B" opacity="0.74" />
<rect x="370" y="418" width="4" height="6" fill="#F3D98B" opacity="0.57" />
<rect x="380" y="418" width="4" height="6" fill="#F3D98B" opacity="0.75" />
<rect x="390" y="418" width="4" height="6" fill="#F3D98B" opacity="0.60" />
<rect x="400" y="432" width="4" height="6" fill="#F3D98B" opacity="0.53" />
<rect x="390" y="446" width="4" height="6" fill="#F3D98B" opacity="0.84" />
<rect x="400" y="446" width="4" height="6" fill="#F3D98B" opacity="0.54" />
<rect x="390" y="460" width="4" height="6" fill="#F3D98B" opacity="0.48" />
<rect x="380" y="474" width="4" height="6" fill="#F3D98B" opacity="0.89" />
<rect x="390" y="474" width="4" height="6" fill="#F3D98B" opacity="0.52" />
<rect x="400" y="474" width="4" height="6" fill="#F3D98B" opacity="0.55" />

</svg>
