<svg xmlns="http://www.w3.org/2000/svg" viewBox="0 0 400 800">
<defs>
<linearGradient id="bg" x1="0" y1="0" x2="0" y2="1">
<stop offset="0%" stop-color="#2A1622" />
<stop offset="100%" stop-color="#160B14" />
</linearGradient>
<radialGradient id="glow5" cx="50%" cy="50%" r="50%"><stop offset="0%" stop-color="#F3A6C1" stop-opacity="0.55" /><stop offset="100%" stop-color="#F3A6C1" stop-opacity="0" /></radialGradient>
</defs>

<rect width="400" height="800" fill="url(#bg)" />
<circle cx="300" cy="160" r="240" fill="url(#glow5)" />
<circle cx="246.7" cy="329.0" r="1.6" fill="#FFFFFF" opacity="0.87" />
<circle cx="291.2" cy="406.6" r="0.6" fill="#FFFFFF" opacity="0.58" />
<circle cx="368.5" cy="289.1" r="1.7" fill="#FFFFFF" opacity="0.37" />
<circle cx="188.2" cy="116.0" r="1.3" fill="#FFFFFF" opacity="0.64" />
<circle cx="15.0" cy="103.2" r="0.9" fill="#FFFFFF" opacity="0.85" />
<circle cx="301.0" cy="78.6" r="1.6" fill="#FFFFFF" opacity="0.38" />
<circle cx="244.6" cy="64.5" r="0.6" fill="#FFFFFF" opacity="0.82" />
<circle cx="89.6" cy="102.7" r="1.8" fill="#FFFFFF" opacity="0.82" />
<circle cx="119.9" cy="423.4" r="1.2" fill="#FFFFFF" opacity="0.71" />
<circle cx="87.8" cy="414.6" r="1.4" fill="#FFFFFF" opacity="0.88" />
<circle cx="349.6" cy="138.5" r="1.0" fill="#FFFFFF" opacity="0.40" />
<circle cx="65.4" cy="38.0" r="1.0" fill="#FFFFFF" opacity="0.66" />
<circle cx="11.3" cy="301.5" r="1.0" fill="#FFFFFF" opacity="0.49" />
<circle cx="321.0" cy="216.7" r="1.0" fill="#FFFFFF" opacity="0.59" />
<circle cx="277.8" cy="34.5" r="1.8" fill="#FFFFFF" opacity="0.31" />
<circle cx="294.9" cy="373.3" r="0.6" fill="#FFFFFF" opacity="0.77" />
<circle cx="149.2" cy="258.8" r="0.6" fill="#FFFFFF" opacity="0.33" />
<circle cx="78.7" cy="420.7" r="0.8" fill="#FFFFFF" opacity="0.75" />
<circle cx="363.3" cy="415.1" r="1.0" fill="#FFFFFF" opacity="0.51" />
<circle cx="209.4" cy="343.5" r="0.7" fill="#FFFFFF" opacity="0.75" />
<circle cx="312.9" cy="379.7" r="0.6" fill="#FFFFFF" opacity="0.87" />
<circle cx="44.6" cy="156.5" r="1.3" fill="#FFFFFF" opacity="0.85" />
<circle cx="139.2" cy="407.4" r="1.3" fill="#FFFFFF" opacity="0.49" />
<circle cx="130.4" cy="86.3" r="0.7" fill="#FFFFFF" opacity="0.39" />
<circle cx="271.9" cy="438.6" r="0.8" fill="#FFFFFF" opacity="0.33" />

</svg>
