<svg xmlns="http://www.w3.org/2000/svg" viewBox="0 0 400 800">
<defs>
<linearGradient id="bg" x1="0" y1="0" x2="0" y2="1">
<stop offset="0%" stop-color="#0E1420" />
<stop offset="100%" stop-color="#171029" />
</linearGradient>
</defs>

<rect width="400" height="800" fill="url(#bg)" />
<circle cx="96.1" cy="423.8" r="0.8" fill="#FFFFFF" opacity="0.72" />
<circle cx="42.4" cy="116.4" r="1.8" fill="#FFFFFF" opacity="0.43" />
<circle cx="253.9" cy="207.4" r="1.1" fill="#FFFFFF" opacity="0.60" />
<circle cx="83.0" cy="367.1" r="0.7" fill="#FFFFFF" opacity="0.44" />
<circle cx="17.6" cy="124.7" r="1.1" fill="#FFFFFF" opacity="0.84" />
<circle cx="154.0" cy="58.9" r="0.9" fill="#FFFFFF" opacity="0.89" />
<circle cx="34.0" cy="276.7" r="1.1" fill="#FFFFFF" opacity="0.70" />
<circle cx="138.6" cy="307.3" r="1.2" fill="#FFFFFF" opacity="0.69" />
<circle cx="352.5" cy="260.1" r="0.8" fill="#FFFFFF" opacity="0.34" />
<circle cx="369.5" cy="220.1" r="0.8" fill="#FFFFFF" opacity="0.87" />
<circle cx="230.0" cy="323.4" r="1.7" fill="#FFFFFF" opacity="0.47" />
<circle cx="145.5" cy="387.6" r="0.8" fill="#FFFFFF" opacity="0.76" />
<circle cx="47.1" cy="306.8" r="1.4" fill="#FFFFFF" opacity="0.87" />
<circle cx="330.5" cy="226.6" r="0.8" fill="#FFFFFF" opacity="0.39" />
<circle cx="210.9" cy="229.2" r="0.7" fill="#FFFFFF" opacity="0.84" />
<rect x="0" y="431" width="46" height="369" fill="#101828" />
<rect x="6" y="443" width="4" height="6" fill="#F3D98B" opacity="0.54" />
<rect x="16" y="443" width="4" height="6" fill="#F3D98B" opacity="0.85" />
<rect x="26" y="443" width="4" height="6" fill="#F3D98B" opacity="0.49" />
<rect x="36" y="443" width="4" height="6" fill="#F3D98B" opacity="0.71" />
<rect x="6" y="457" width="4" height="6" fill="#F3D98B" opacity="0.88" />
<rect x="16" y="457" width="4" height="6" fill="#F3D98B" opacity="0.62" />
<rect x="26" y="457" width="4" height="6" fill="#F3D98B" opacity="0.72" />
<rect x="16" y="471" width="4" height="6" fill="#F3D98B" opacity="0.43" />
<rect x="26" y="471" width="4" height="6" fill="#F3D98B" opacity="0.77" />
<rect x="6" y="485" width="4" height="6" fill="#F3D98B" opacity="0.86" />
<rect x="16" y="485" width="4" height="6" fill="#F3D98B" opacity="0.74" />
<rect x="6" y="499" width="4" height="6" fill="#F3D98B" opacity="0.54" />
<rect x="26" y="499" width="4" height="6" fill="#F3D98B" opacity="0.77" />
<rect x="6" y="527" width="4" height="6" fill="#F3D98B" opacity="0.55" />
<rect x="16" y="541" width="4" height="6" fill="#F3D98B" opacity="0.77" />
<rect x="26" y="541" width="4" height="6" fill="#F3D98B" opacity="0.46" />
<rect x="26" y="569" width="4" height="6" fill="#F3D98B" opacity="0.63" />
<rect x="36" y="569" width="4" height="6" fill="#F3D98B" opacity="0.58" />
<rect x="53" y="483" width="53" height="317" fill="#101828" />
<rect x="69" y="495" width="4" height="6" fill="#F3D98B" opacity="0.59" />
<rect x="79" y="495" width="4" height="6" fill="#F3D98B" opacity="0.46" />
<rect x="89" y="495" width="4" height="6" fill="#F3D98B" opacity="0.41" />
<rect x="59" y="509" width="4" height="6" fill="#F3D98B" opacity="0.62" />
<rect x="79" y="509" width="4" height="6" fill="#F3D98B" opacity="0.75" />
<rect x="59" y="523" width="4" height="6" fill="#F3D98B" opacity="0.71" />
<rect x="89" y="523" width="4" height="6" fill="#F3D98B" opacity="0.76" />
<rect x="59" y="537" width="4" height="6" fill="#F3D98B" opacity="0.61" />
<rect x="69" y="537" width="4" height="6" fill="#F3D98B" opacity="0.53" />
<rect x="79" y="537" width="4" height="6" fill="#F3D98B" opacity="0.88" />
<rect x="89" y="537" width="4" height="6" fill="#F3D98B" opacity="0.41" />
<rect x="69" y="551" width="4" height="6" fill="#F3D98B" opacity="0.56" />
<rect x="59" y="565" width="4" height="6" fill="#F3D98B" opacity="0.71" />
<rect x="79" y="565" width="4" height="6" fill="#F3D98B" opacity="0.78" />
<rect x="89" y="565" width="4" height="6" fill="#F3D98B" opacity="0.82" />
<rect x="69" y="579" width="4" height="6" fill="#F3D98B" opacity="0.86" />
<rect x="79" y="579" width="4" height="6" fill="#F3D98B" opacity="0.78" />
<rect x="89" y="579" width="4" height="6" fill="#F3D98B" opacity="0.66" />
<rect x="116" y="417" width="48" height="383" fill="#101828" />
<rect x="152" y="429" width="4" height="6" fill="#F3D98B" opacity="0.69" />
<rect x="142" y="443" width="4" height="6" fill="#F3D98B" opacity="0.44" />
<rect x="152" y="443" width="4" height="6" fill="#F3D98B" opacity="0.79" />
<rect x="122" y="457" width="4" height="6" fill="#F3D98B" opacity="0.90" />
<rect x="132" y="457" width="4" height="6" fill="#F3D98B" opacity="0.40" />
<rect x="142" y="457" width="4" height="6" fill="#F3D98B" opacity="0.61" />
<rect x="152" y="457" width="4" height="6" fill="#F3D98B" opacity="0.81" />
<rect x="152" y="471" width="4" height="6" fill="#F3D98B" opacity="0.80" />
<rect x="152" y="485" width="4" height="6" fill="#F3D98B" opacity="0.77" />
<rect x="122" y="499" width="4" height="6" fill="#F3D98B" opacity="0.88" />
<rect x="132" y="499" width="4" height="6" fill="#F3D98B" opacity="0.82" />
<rect x="122" y="513" width="4" height="6" fill="#F3D98B" opacity="0.71" />
<rect x="132" y="527" width="4" height="6" fill="#F3D98B" opacity="0.62" />
<rect x="132" y="555" width="4" height="6" fill="#F3D98B" opacity="0.67" />
<rect x="142" y="555" width="4" height="6" fill="#F3D98B" opacity="0.72" />
<rect x="169" y="399" width="38" height="401" fill="#101828" />
<rect x="185" y="425" width="4" height="6" fill="#F3D98B" opacity="0.51" />
<rect x="185" y="439" width="4" height="6" fill="#F3D98B" opacity="0.57" />
<rect x="175" y="453" width="4" height="6" fill="#F3D98B" opacity="0.72" />
<rect x="185" y="453" width="4" height="6" fill="#F3D98B" opacity="0.57" />
<rect x="195" y="453" width="4" height="6" fill="#F3D98B" opacity="0.42" />
<rect x="185" y="467" width="4" height="6" fill="#F3D98B" opacity="0.66" />
<rect x="195" y="467" width="4" height="6" fill="#F3D98B" opacity="0.59" />
<rect x="175" y="481" width="4" height="6" fill="#F3D98B" opacity="0.44" />
<rect x="185" y="481" width="4" height="6" fill="#F3D98B" opacity="0.49" />
<rect x="175" y="495" width="4" height="6" fill="#F3D98B" opacity="0.62" />
<rect x="185" y="495" width="4" height="6" fill="#F3D98B" opacity="0.54" />
<rect x="195" y="495" width="4" height="6" fill="#F3D98B" opacity="0.85" />
<rect x="175" y="509" width="4" height="6" fill="#F3D98B" opacity="0.52" />
<rect x="185" y="509" width="4" height="6" fill="#F3D98B" opacity="0.88" />
<rect x="195" y="509" width="4" height="6" fill="#F3D98B" opacity="0.62" />
<rect x="195" y="523" width="4" height="6" fill="#F3D98B" opacity="0.48" />
<rect x="185" y="551" width="4" height="6" fill="#F3D98B" opacity="0.49" />
<rect x="175" y="565" width="4" height="6" fill="#F3D98B" opacity="0.45" />
<rect x="195" y="565" width="4" height="6" fill="#F3D98B" opacity="0.85" />
<rect x="175" y="579" width="4" height="6" fill="#F3D98B" opacity="0.68" />
<rect x="195" y="579" width="4" height="6" fill="#F3D98B" opacity="0.90" />
<rect x="216" y="471" width="45" height="329" fill="#101828" />
<rect x="222" y="483" width="4" height="6" fill="#F3D98B" opacity="0.80" />
<rect x="232" y="483" width="4" height="6" fill="#F3D98B" opacity="0.65" />
<rect x="242" y="483" width="4" height="6" fill="#F3D98B" opacity="0.56" />
<rect x="252" y="483" width="4" height="6" fill="#F3D98B" opacity="0.67" />
<rect x="232" y="497" width="4" height="6" fill="#F3D98B" opacity="0.86" />
<rect x="232" y="511" width="4" height="6" fill="#F3D98B" opacity="0.55" />
<rect x="242" y="511" width="4" height="6" fill="#F3D98B" opacity="0.86" />
<rect x="252" y="511" width="4" height="6" fill="#F3D98B" opacity="0.80" />
<rect x="232" y="525" width="4" height="6" fill="#F3D98B" opacity="0.81" />
<rect x="252" y="525" width="4" height="6" fill="#F3D98B" opacity="0.84" />
<rect x="222" y="539" width="4" height="6" fill="#F3D98B" opacity="0.58" />
<rect x="222" y="553" width="4" height="6" fill="#F3D98B" opacity="0.54" />
<rect x="232" y="553" width="4" height="6" fill="#F3D98B" opacity="0.73" />
<rect x="242" y="553" width="4" height="6" fill="#F3D98B" opacity="0.81" />
<rect x="222" y="567" width="4" height="6" fill="#F3D98B" opacity="0.58" />
<rect x="252" y="567" width="4" height="6" fill="#F3D98B" opacity="0.85" />
<rect x="232" y="581" width="4" height="6" fill="#F3D98B" opacity="0.43" />
<rect x="271" y="450" width="42" height="350" fill="#101828" />
<rect x="297" y="476" width="4" height="6" fill="#F3D98B" opacity="0.77" />
<rect x="277" y="490" width="4" height="6" fill="#F3D98B" opacity="0.53" />
<rect x="287" y="490" width="4" height="6" fill="#F3D98B" opacity="0.44" />
<rect x="297" y="504" width="4" height="6" fill="#F3D98B" opacity="0.76" />
<rect x="297" y="518" width="4" height="6" fill="#F3D98B" opacity="0.59" />
<rect x="277" y="546" width="4" height="6" fill="#F3D98B" opacity="0.56" />
<rect x="287" y="546" width="4" height="6" fill="#F3D98B" opacity="0.43" />
<rect x="297" y="546" width="4" height="6" fill="#F3D98B" opacity="0.69" />
<rect x="287" y="560" width="4" height="6" fill="#F3D98B" opacity="0.86" />
<rect x="297" y="560" width="4" height="6" fill="#F3D98B" opacity="0.61" />
<rect x="287" y="574" width="4" height="6" fill="#F3D98B" opacity="0.54" />
<rect x="320" y="430" width="34" height="370" fill="#101828" />
<rect x="326" y="442" width="4" height="6" fill="#F3D98B" opacity="0.41" />
<rect x="336" y="442" width="4" height="6" fill="#F3D98B" opacity="0.50" />
<rect x="326" y="456" width="4" height="6" fill="#F3D98B" opacity="0.88" />
<rect x="346" y="456" width="4" height="6" fill="#F3D98B" opacity="0.57" />
<rect x="326" y="470" width="4" height="6" fill="#F3D98B" opacity="0.49" />
<rect x="336" y="470" width="4" height="6" fill="#F3D98B" opacity="0.44" />
<rect x="346" y="470" width="4" height="6" fill="#F3D98B" opacity="0.77" />
<rect x="326" y="484" width="4" height="6" fill="#F3D98B" opacity="0.78" />
<rect x="336" y="484" width="4" height="6" fill="#F3D98B" opacity="0.60" />
<rect x="346" y="484" width="4" height="6" fill="#F3D98B" opacity="0.72" />
<rect x="326" y="498" width="4" height="6" fill="#F3D98B" opacity="0.76" />
<rect x="336" y="498" width="4" height="6" fill="#F3D98B" opacity="0.87" />
<rect x="346" y="498" width="4" height="6" fill="#F3D98B" opacity="0.84" />
<rect x="326" y="512" width="4" height="6" fill="#F3D98B" opacity="0.59" />
<rect x="336" y="512" width="4" height="6" fill="#F3D98B" opacity="0.58" />
<rect x="346" y="512" width="4" height="6" fill="#F3D98B" opacity="0.84" />
<rect x="326" y="526" width="4" height="6" fill="#F3D98B" opacity="0.86" />
<rect x="336" y="526" width="4" height="6" fill="#F3D98B" opacity="0.65" />
<rect x="326" y="540" width="4" height="6" fill="#F3D98B" opacity="0.85" />
<rect x="326" y="554" width="4" height="6" fill="#F3D98B" opacity="0.85" />
<rect x="336" y="568" width="4" height="6" fill="#F3D98B" opacity="0.82" />
<rect x="326" y="582" width="4" height="6" fill="#F3D98B" opacity="0.42" />
<rect x="346" y="582" width="4" height="6" fill="#F3D98B" opacity="0.78" />
<rect x="361" y="474" width="50" height="326" fill="#101828" />
<rect x="377" y="486" width="4" height="6" fill="#F3D98B" opacity="0.40" />
<rect x="367" y="500" width="4" height="6" fill="#F3D98B" opacity="0.50" />
<rect x="387" y="500" width="4" height="6" fill="#F3D98B" opacity="0.73" />
<rect x="367" y="514" width="4" height="6" fill="#F3D98B" opacity="0.76" />
<rect x="377" y="514" width="4" height="6" fill="#F3D98B" opacity="0.68" />
<rect x="387" y="514" width="4" height="6" fill="#F3D98B" opacity="0.45" />
<rect x="397" y="528" width="4" height="6" fill="#F3D98B" opacity="0.51" />
<rect x="367" y="556" width="4" height="6" fill="#F3D98B" opacity="0.67" />
<rect x="387" y="556" width="4" height="6" fill="#F3D98B" opacity="0.49" />
<rect x="397" y="556" width="4" height="6" fill="#F3D98B" opacity="0.87" />
<rect x="367" y="570" width="4" height="6" fill="#F3D98B" opacity="0.60" />
<rect x="377" y="570" width="4" height="6" fill="#F3D98B" opacity="0.65" />
<rect x="0" y="576.0" width="400" height="10" fill="#0B111B" />

</svg>
